<?xml version="1.0" standalone="no"?>
<!DOCTYPE svg PUBLIC "-//W3C//DTD SVG 20010904//EN"
 "http://www.w3.org/TR/2001/REC-SVG-20010904/DTD/svg10.dtd">
<svg version="1.0" xmlns="http://www.w3.org/2000/svg"
 width="279.000000pt" height="240.000000pt" viewBox="0 0 279.000000 240.000000"
 preserveAspectRatio="xMidYMid meet">
<metadata>
Created by potrace 1.16, written by Peter Selinger 2001-2019
</metadata>
<g transform="translate(0.000000,240.000000) scale(0.100000,-0.100000)"
fill="#000000" stroke="none">
<path d="M1354 2377 c-17 -12 -53 -34 -78 -50 -48 -28 -53 -47 -13 -47 12 0
29 -5 37 -10 38 -24 -238 -112 -396 -126 l-74 -7 0 36 c0 42 -1 43 -128 51
l-83 5 3 -112 3 -112 40 0 40 0 2 -50 c2 -50 8 -112 39 -392 l17 -153 313 0
314 0 0 333 c0 182 3 356 6 385 l7 52 131 1 c121 0 128 2 96 14 -20 8 -77 14
-132 14 -98 1 -98 1 -98 26 0 20 5 25 24 25 14 0 37 -5 52 -10 23 -9 25 -9 15
4 -11 13 -8 20 14 40 l26 24 -48 28 c-26 16 -50 31 -53 35 -13 17 -48 15 -76
-4z m-276 -432 c45 -57 48 -82 20 -162 -19 -53 -23 -73 -13 -73 7 0 16 15 19
33 6 30 31 63 62 80 18 10 71 -12 77 -32 2 -9 0 -27 -4 -40 -12 -30 -53 -26
-57 7 -4 28 -19 25 -46 -12 -16 -21 -18 -29 -7 -35 16 -10 16 -22 1 -31 -19
-12 -3 -47 22 -46 26 1 36 -22 12 -31 -19 -7 -64 37 -64 63 0 8 -5 14 -11 14
-7 0 -9 -12 -5 -35 10 -49 0 -75 -28 -75 -38 0 -51 25 -39 71 8 31 8 39 -3 39
-8 0 -14 -6 -14 -14 0 -26 -45 -70 -64 -63 -25 10 -14 32 15 32 17 0 25 7 27
23 2 12 -1 22 -7 22 -13 0 -10 22 4 32 6 4 2 18 -11 34 -23 31 -47 44 -38 21
3 -8 -2 -22 -11 -31 -25 -25 -55 -4 -55 38 0 66 91 71 125 7 8 -17 15 -39 15
-51 0 -11 7 -20 15 -20 12 0 10 12 -10 66 -14 37 -25 74 -25 83 0 21 56 111
69 111 5 0 18 -11 29 -25z"/>
<path d="M2043 2223 l-83 -4 0 -44 0 -45 60 0 c44 0 60 -4 60 -14 0 -21 -76
-26 -392 -26 -185 0 -288 -4 -288 -10 0 -6 120 -10 340 -10 l340 0 0 -32 c0
-31 2 -33 37 -33 l38 0 6 -50 c3 -28 7 21 7 113 l2 162 -22 -2 c-13 -1 -60 -4
-105 -5z"/>
<path d="M1400 1972 c0 -13 184 -22 447 -22 200 0 233 2 233 15 0 13 -44 15
-340 15 -187 0 -340 -4 -340 -8z"/>
<path d="M1400 1855 c0 -13 44 -15 335 -15 l335 0 0 -45 0 -45 -335 0 c-217 0
-335 -4 -335 -10 0 -6 117 -10 331 -10 l330 0 -3 -42 -3 -43 -327 -3 c-181 -1
-328 -6 -328 -11 0 -10 254 -21 483 -21 l167 0 1 -27 c0 -21 8 -9 30 46 21 53
27 77 19 85 -7 7 -4 16 12 29 l23 19 -27 -5 c-28 -4 -28 -4 -28 54 l0 59 -340
0 c-296 0 -340 -2 -340 -15z"/>
<path d="M364 1665 c-3 -20 -2 -54 4 -78 13 -54 8 -105 -18 -172 -6 -16 -11
-31 -11 -32 1 -2 0 -5 0 -8 -1 -3 -2 -9 -3 -14 -2 -20 -16 -23 -16 -3 0 11 -3
28 -6 37 -6 14 -10 12 -30 -12 l-22 -28 -7 26 c-6 24 -51 56 -62 45 -13 -12
11 -56 62 -118 31 -38 51 -69 45 -73 -6 -4 -8 -30 -5 -63 4 -42 3 -50 -4 -30
-14 42 -50 97 -72 108 -17 9 -19 7 -19 -17 0 -16 7 -39 16 -51 14 -21 14 -22
-8 -22 -13 0 -29 -4 -36 -9 -21 -13 34 -51 74 -51 37 0 46 -19 14 -27 -22 -6
-27 -23 -7 -23 7 0 25 -6 40 -12 19 -10 25 -18 21 -32 -4 -12 -2 -16 5 -12 7
5 9 1 5 -8 -3 -9 -1 -16 5 -16 6 0 8 -7 4 -17 -5 -12 -3 -14 7 -8 9 5 11 4 6
-4 -5 -8 -21 1 -52 29 -62 57 -85 50 -46 -15 l18 -30 -30 -20 c-16 -11 -31
-25 -33 -32 -6 -17 58 -27 129 -19 54 7 59 6 47 -8 -32 -35 -39 -46 -32 -46 4
0 0 -6 -9 -14 -16 -12 -16 -14 2 -44 11 -18 25 -32 32 -33 7 0 5 -4 -6 -8 -10
-4 -24 -24 -31 -44 l-13 -37 60 0 c64 0 163 34 151 53 -3 6 -1 7 6 3 6 -4 9
-12 6 -17 -4 -5 -1 -9 4 -9 17 0 24 -4 48 -28 13 -13 28 -20 33 -17 6 3 10 1
10 -5 0 -6 4 -8 10 -5 5 3 10 1 10 -4 0 -14 -10 -14 -64 1 -37 10 -51 9 -87
-6 -52 -20 -71 -35 -123 -99 -21 -27 -49 -54 -62 -59 -13 -6 -24 -14 -24 -18
0 -12 57 -20 90 -13 29 5 43 33 18 33 -7 1 0 8 16 17 l29 15 -23 18 -23 17 22
22 21 21 29 -21 c23 -17 33 -19 49 -10 28 15 27 16 30 -28 3 -43 -6 -53 -63
-71 -22 -7 -34 -15 -28 -17 16 -6 108 36 159 71 21 14 53 44 71 67 18 23 33
36 33 29 0 -7 7 -10 15 -6 8 3 15 1 15 -5 0 -6 7 -8 16 -5 8 3 12 2 9 -4 -3
-6 -15 -10 -27 -10 -17 0 -18 -3 -8 -15 13 -16 6 -50 -9 -41 -5 3 -14 -1 -20
-8 -10 -12 -8 -13 7 -9 11 2 32 -3 46 -13 22 -13 32 -15 51 -6 14 7 25 17 25
23 0 8 18 9 59 4 47 -5 65 -3 83 9 26 19 52 21 42 4 -5 -8 2 -9 25 -5 22 5 30
3 25 -5 -5 -8 4 -9 32 -4 30 5 36 4 24 -4 -12 -10 -11 -11 8 -7 12 3 22 2 22
-3 0 -4 10 -10 23 -14 12 -3 43 -25 69 -48 25 -24 67 -54 91 -67 l45 -25 57
35 c31 18 66 45 78 58 l22 23 -21 -6 c-16 -5 -26 0 -37 18 -16 25 -16 25 63
96 211 191 397 504 446 748 22 113 20 128 -16 136 -17 3 -157 3 -310 -1 l-280
-6 0 -411 c0 -226 -3 -421 -6 -434 -6 -20 -12 -22 -87 -22 -74 0 -83 2 -111
27 -21 19 -19 15 7 -12 38 -42 48 -81 22 -91 -8 -4 -21 -1 -28 4 -7 6 -40 17
-72 24 l-60 13 -22 68 c-12 38 -27 75 -34 83 -14 17 -29 9 -29 -16 0 -21 -21
-32 -41 -19 -22 14 -59 11 -59 -5 0 -14 34 -51 75 -80 18 -13 16 -14 -20 -6
-22 5 -43 10 -47 10 -9 0 -22 41 -19 62 1 9 -3 19 -9 23 -5 3 -10 -2 -10 -13
0 -29 -31 -51 -57 -41 -19 7 -21 12 -12 41 10 36 13 148 3 148 -3 0 -19 -9
-35 -21 -29 -20 -29 -20 -29 0 0 11 -4 23 -10 26 -6 4 -7 -1 -3 -11 5 -14 3
-15 -15 -5 -29 16 -42 14 -42 -6 1 -26 38 -104 63 -132 21 -22 18 -21 -38 7
-105 53 -100 44 -74 150 12 51 20 95 16 98 -3 3 -22 -6 -41 -21 -24 -18 -36
-23 -36 -14 -1 20 -44 49 -79 53 -54 6 -79 46 -30 46 12 0 28 14 41 36 l21 35
28 -33 28 -33 2 40 c1 31 2 35 8 17 6 -23 7 -23 23 -5 16 17 15 21 -6 62 -26
52 -46 64 -46 27 0 -40 -17 -76 -34 -70 -8 3 -19 -3 -25 -14 -13 -24 -66 -19
-57 5 3 8 -1 28 -10 45 -15 28 -17 30 -26 14 -10 -18 -7 -92 6 -131 3 -11 -5
4 -19 33 -37 77 -40 97 -18 119 17 17 17 19 -1 37 -15 15 -20 16 -28 5 -6 -9
-8 12 -4 61 7 102 21 147 49 156 49 14 117 47 117 56 0 5 -7 5 -18 -1 -23 -12
-54 9 -41 30 12 19 12 79 0 79 -6 0 -13 -4 -16 -10 -3 -5 -10 -10 -15 -10 -14
0 1 43 25 70 12 14 37 48 54 75 32 49 32 49 4 20 -38 -41 -69 -36 -70 10 -2
63 -28 76 -39 20z m1305 -502 c33 -41 35 -69 12 -129 -24 -64 -24 -64 -12 -64
5 0 12 12 16 28 8 35 43 72 67 72 51 0 75 -42 42 -75 -12 -12 -19 -13 -30 -4
-8 6 -14 18 -14 25 0 22 -18 16 -37 -13 -13 -20 -14 -28 -5 -31 10 -3 10 -7 2
-17 -18 -21 -3 -54 20 -48 14 4 20 0 20 -11 0 -31 -39 -18 -57 19 -9 19 -20
35 -23 35 -3 0 -6 -21 -6 -47 1 -45 -1 -48 -24 -48 -23 0 -25 3 -23 48 1 26
-3 47 -8 47 -5 0 -9 -7 -9 -15 0 -21 -47 -68 -60 -60 -20 12 -11 36 13 33 19
-3 22 1 23 37 2 62 -40 116 -48 63 -4 -30 -34 -35 -48 -8 -15 29 -4 59 26 66
40 10 71 -10 85 -56 7 -22 16 -40 21 -40 12 0 10 9 -13 66 -13 32 -19 61 -16
76 7 28 44 78 57 78 5 0 18 -12 29 -27z"/>
<path d="M2405 1685 c-32 -88 -45 -95 -88 -50 -28 30 -28 29 4 -20 17 -27 42
-61 54 -75 12 -14 25 -38 29 -53 7 -28 7 -28 -19 -11 -28 18 -28 16 -15 -41
10 -46 -2 -69 -33 -59 -12 4 -17 2 -13 -5 4 -5 33 -20 66 -32 53 -19 61 -26
70 -58 15 -50 25 -182 14 -180 -5 1 -17 -1 -26 -5 -16 -7 -16 -10 -1 -32 15
-23 14 -29 -12 -95 -15 -39 -29 -68 -31 -66 -3 2 0 16 6 31 13 35 13 103 0
111 -5 3 -10 0 -10 -8 0 -8 -7 -20 -15 -27 -8 -7 -12 -16 -9 -21 3 -5 -5 -13
-18 -18 -19 -7 -28 -3 -51 23 -30 33 -28 24 10 -36 14 -23 31 -38 43 -38 23 0
36 -18 22 -32 -6 -6 -28 -12 -49 -14 -27 -2 -45 -11 -64 -32 l-26 -28 -31 24
c-18 14 -35 22 -39 19 -3 -4 4 -48 16 -99 26 -106 31 -97 -74 -150 -56 -28
-59 -29 -38 -7 25 28 62 106 63 132 0 22 -22 22 -51 -2 -23 -18 -24 -18 -56 6
l-33 25 0 -63 c0 -35 4 -79 9 -97 9 -29 7 -34 -12 -41 -24 -9 -46 11 -47 42 0
25 -25 16 -26 -9 -1 -37 -15 -62 -37 -68 -47 -13 -51 -5 -14 30 55 54 47 79
-17 54 -23 -8 -28 -6 -42 22 -14 26 -18 29 -30 16 -8 -8 -24 -45 -37 -83 l-22
-70 -60 -13 c-33 -7 -69 -22 -80 -34 l-20 -20 25 7 c14 4 26 11 28 15 2 4 13
6 25 3 18 -4 19 -3 7 7 -12 8 -6 9 24 4 28 -5 37 -4 32 4 -5 8 3 10 25 5 23
-4 30 -3 25 5 -11 19 19 14 44 -6 19 -16 30 -17 76 -8 45 8 56 7 67 -6 25 -32
50 -37 78 -17 16 11 35 17 46 13 14 -4 13 -1 -5 15 -16 14 -22 27 -17 41 5 15
2 20 -14 20 -11 0 -23 4 -26 10 -3 6 1 7 9 4 9 -3 16 -1 16 5 0 6 7 8 15 5 8
-4 15 -1 15 6 0 7 15 -6 33 -29 49 -62 180 -141 232 -140 11 0 -4 9 -33 20
l-53 21 3 42 c3 41 4 43 26 33 18 -8 30 -7 53 7 24 14 33 15 44 6 22 -18 18
-38 -7 -46 -21 -6 -21 -7 4 -20 19 -10 25 -19 21 -34 -5 -18 -1 -20 51 -20 59
0 71 10 32 28 -13 5 -41 32 -62 59 -52 64 -71 79 -123 99 -36 15 -50 16 -87 6
-54 -15 -64 -15 -64 -1 0 5 5 7 10 4 6 -3 10 -1 10 5 0 6 4 8 10 5 5 -3 22 6
37 22 16 15 29 26 31 25 7 -6 22 0 17 7 -3 5 0 13 6 17 7 4 9 3 6 -3 -13 -20
87 -53 159 -53 53 0 65 3 56 12 -14 14 -16 58 -2 58 13 0 32 -38 25 -50 -4 -6
7 -10 24 -10 37 0 39 9 6 44 -18 20 -34 26 -67 27 -40 1 -41 2 -13 9 17 4 24
8 17 9 -10 1 -9 7 2 30 14 27 14 29 -5 34 -11 3 -19 9 -17 14 5 17 -14 52 -30
55 -9 2 24 4 75 4 50 -1 95 3 100 7 4 5 -7 22 -26 37 -32 27 -33 29 -17 51 18
26 21 59 6 59 -6 0 -30 -18 -54 -40 -31 -28 -47 -37 -52 -29 -5 8 -3 9 6 4 10
-6 12 -4 7 8 -4 10 -2 17 4 17 6 0 8 7 5 16 -4 9 -2 13 5 8 7 -4 9 0 5 12 -4
14 2 22 21 32 15 6 33 12 40 12 18 0 16 17 -2 24 -26 9 -17 26 14 26 17 0 42
10 57 23 l27 24 -33 11 -33 12 19 23 c19 20 22 67 6 67 -28 0 -72 -56 -94
-120 -5 -17 -6 -6 -3 32 3 33 1 59 -5 63 -5 3 13 34 41 67 53 64 76 104 66
114 -11 11 -47 -8 -60 -32 l-13 -25 -14 26 c-18 33 -33 27 -41 -16 -6 -31 -9
-34 -13 -11 -1 4 -5 13 -9 20 -5 6 -6 12 -3 12 3 0 1 12 -5 28 -24 60 -28 110
-15 184 9 54 -6 119 -19 83z"/>
<path d="M1723 1533 c-278 -3 -323 -5 -323 -18 0 -13 44 -15 325 -15 318 0
325 0 325 20 0 11 -1 19 -2 18 -2 -2 -148 -4 -325 -5z"/>
<path d="M810 1185 c0 -13 39 -15 290 -15 251 0 290 2 290 15 0 13 -39 15
-290 15 -251 0 -290 -2 -290 -15z"/>
<path d="M1878 363 c-4 -14 -20 -23 -59 -31 -37 -8 -66 -23 -92 -47 -35 -32
-51 -79 -24 -71 6 2 53 10 102 17 85 12 92 15 132 54 28 28 47 39 55 33 7 -4
18 -8 23 -8 6 0 -5 9 -23 20 -18 11 -46 20 -62 20 -16 0 -33 7 -38 16 -8 14
-10 14 -14 -3z"/>
<path d="M809 333 c-7 -10 -10 -15 -5 -11 4 3 23 -11 42 -32 19 -21 48 -42 65
-45 33 -8 34 -12 14 -79 -8 -27 -15 -52 -15 -56 0 -12 79 -21 98 -11 9 5 23
30 31 55 14 48 33 72 51 61 6 -3 10 3 10 15 0 38 -67 88 -142 105 -89 20 -132
19 -149 -2z"/>
<path d="M1933 262 c-10 -6 -8 -22 6 -69 13 -43 15 -65 8 -72 -7 -7 -7 -27 2
-66 11 -48 16 -55 36 -55 21 0 23 3 18 34 -5 33 -4 35 33 45 49 13 84 37 84
57 0 13 -11 15 -60 12 l-60 -3 -15 52 c-8 28 -15 56 -15 62 0 13 -19 14 -37 3z"/>
</g>
</svg>
