<?xml version="1.0" encoding="utf-8"?>
<svg viewBox="260.42 232.646 189.551 61.969" xmlns="http://www.w3.org/2000/svg">
  <g>
    <title>Regular</title>
    <rect x="260.42" y="240.091" width="10.824" height="47.625" style="fill: rgb(76, 164, 86);"/>
    <path d="M 171.183 86.362 C 172.876 86.362 174.353 86.642 175.613 87.202 C 176.873 87.762 177.84 88.565 178.513 89.612 C 179.186 90.659 179.523 91.899 179.523 93.332 C 179.523 94.752 179.186 95.989 178.513 97.042 C 177.84 98.095 176.873 98.902 175.613 99.462 C 174.353 100.022 172.876 100.302 171.183 100.302 L 166.753 100.302 L 166.753 105.962 L 163.113 105.962 L 163.113 86.362 L 171.183 86.362 Z M 171.013 97.222 C 172.6 97.222 173.803 96.889 174.623 96.222 C 175.443 95.549 175.853 94.585 175.853 93.332 C 175.853 92.085 175.443 91.125 174.623 90.452 C 173.803 89.779 172.6 89.442 171.013 89.442 L 166.753 89.442 L 166.753 97.222 L 171.013 97.222 ZM 186.018 93.192 C 187.025 91.625 188.798 90.842 191.338 90.842 L 191.338 94.172 C 191.038 94.119 190.768 94.092 190.528 94.092 C 189.161 94.092 188.095 94.489 187.328 95.282 C 186.568 96.075 186.188 97.219 186.188 98.712 L 186.188 105.962 L 182.688 105.962 L 182.688 91.012 L 186.018 91.012 L 186.018 93.192 ZM 208.216 98.572 C 208.216 98.812 208.199 99.155 208.166 99.602 L 196.426 99.602 C 196.633 100.709 197.169 101.582 198.036 102.222 C 198.909 102.869 199.989 103.192 201.276 103.192 C 202.916 103.192 204.269 102.649 205.336 101.562 L 207.206 103.722 C 206.539 104.522 205.693 105.129 204.666 105.542 C 203.639 105.955 202.479 106.162 201.186 106.162 C 199.546 106.162 198.099 105.835 196.846 105.182 C 195.599 104.529 194.636 103.619 193.956 102.452 C 193.269 101.285 192.926 99.962 192.926 98.482 C 192.926 97.029 193.259 95.719 193.926 94.552 C 194.586 93.385 195.506 92.475 196.686 91.822 C 197.859 91.169 199.183 90.842 200.656 90.842 C 202.116 90.842 203.419 91.165 204.566 91.812 C 205.713 92.452 206.609 93.355 207.256 94.522 C 207.896 95.689 208.216 97.039 208.216 98.572 Z M 200.656 93.642 C 199.536 93.642 198.589 93.972 197.816 94.632 C 197.043 95.299 196.573 96.182 196.406 97.282 L 204.886 97.282 C 204.739 96.202 204.283 95.325 203.516 94.652 C 202.749 93.979 201.796 93.642 200.656 93.642 ZM 217.649 87.822 C 216.176 87.822 215.439 88.622 215.439 90.222 L 215.439 91.122 L 219.559 91.122 L 219.559 93.922 L 215.549 93.922 L 215.549 105.962 L 212.049 105.962 L 212.049 93.922 L 209.589 93.922 L 209.589 91.122 L 212.049 91.122 L 212.049 90.172 C 212.049 88.565 212.516 87.299 213.449 86.372 C 214.383 85.452 215.699 84.992 217.399 84.992 C 218.746 84.992 219.799 85.262 220.559 85.802 L 219.579 88.432 C 218.986 88.025 218.343 87.822 217.649 87.822 ZM 235.736 98.572 C 235.736 98.812 235.719 99.155 235.686 99.602 L 223.946 99.602 C 224.152 100.709 224.689 101.582 225.556 102.222 C 226.429 102.869 227.509 103.192 228.796 103.192 C 230.436 103.192 231.789 102.649 232.856 101.562 L 234.726 103.722 C 234.059 104.522 233.212 105.129 232.186 105.542 C 231.159 105.955 229.999 106.162 228.706 106.162 C 227.066 106.162 225.619 105.835 224.366 105.182 C 223.119 104.529 222.156 103.619 221.476 102.452 C 220.789 101.285 220.446 99.962 220.446 98.482 C 220.446 97.029 220.779 95.719 221.446 94.552 C 222.106 93.385 223.026 92.475 224.206 91.822 C 225.379 91.169 226.702 90.842 228.176 90.842 C 229.636 90.842 230.939 91.165 232.086 91.812 C 233.232 92.452 234.129 93.355 234.776 94.522 C 235.416 95.689 235.736 97.039 235.736 98.572 Z M 228.176 93.642 C 227.056 93.642 226.109 93.972 225.336 94.632 C 224.562 95.299 224.092 96.182 223.926 97.282 L 232.406 97.282 C 232.259 96.202 231.802 95.325 231.036 94.652 C 230.269 93.979 229.316 93.642 228.176 93.642 ZM 239.099 105.962 L 239.099 91.012 L 242.599 91.012 L 242.599 105.962 L 239.099 105.962 Z M 240.859 88.542 C 240.226 88.542 239.692 88.342 239.259 87.942 C 238.832 87.542 238.619 87.042 238.619 86.442 C 238.619 85.849 238.832 85.352 239.259 84.952 C 239.692 84.545 240.226 84.342 240.859 84.342 C 241.492 84.342 242.026 84.535 242.459 84.922 C 242.886 85.302 243.099 85.782 243.099 86.362 C 243.099 86.975 242.889 87.492 242.469 87.912 C 242.049 88.332 241.512 88.542 240.859 88.542 ZM 255.19 102.662 L 256.17 105.152 C 255.763 105.485 255.266 105.735 254.68 105.902 C 254.086 106.075 253.463 106.162 252.81 106.162 C 251.17 106.162 249.903 105.732 249.01 104.872 C 248.11 104.012 247.66 102.762 247.66 101.122 L 247.66 93.922 L 245.2 93.922 L 245.2 91.122 L 247.66 91.122 L 247.66 87.702 L 251.16 87.702 L 251.16 91.122 L 255.17 91.122 L 255.17 93.922 L 251.16 93.922 L 251.16 101.032 C 251.16 101.759 251.336 102.315 251.69 102.702 C 252.05 103.082 252.563 103.272 253.23 103.272 C 254.016 103.272 254.67 103.069 255.19 102.662 ZM 270.03 91.012 L 273.53 91.012 L 273.53 105.962 L 270.2 105.962 L 270.2 104.062 C 269.64 104.729 268.94 105.245 268.1 105.612 C 267.26 105.979 266.353 106.162 265.38 106.162 C 263.387 106.162 261.817 105.605 260.67 104.492 C 259.517 103.379 258.94 101.732 258.94 99.552 L 258.94 91.012 L 262.44 91.012 L 262.44 99.072 C 262.44 100.419 262.743 101.422 263.35 102.082 C 263.957 102.749 264.82 103.082 265.94 103.082 C 267.193 103.082 268.19 102.692 268.93 101.912 C 269.663 101.139 270.03 100.025 270.03 98.572 L 270.03 91.012 ZM 281.455 93.192 C 282.462 91.625 284.235 90.842 286.775 90.842 L 286.775 94.172 C 286.475 94.119 286.205 94.092 285.965 94.092 C 284.598 94.092 283.532 94.489 282.765 95.282 C 282.005 96.075 281.625 97.219 281.625 98.712 L 281.625 105.962 L 278.125 105.962 L 278.125 91.012 L 281.455 91.012 L 281.455 93.192 ZM 295.369 90.842 C 297.569 90.842 299.252 91.369 300.419 92.422 C 301.586 93.475 302.169 95.069 302.169 97.202 L 302.169 105.962 L 298.869 105.962 L 298.869 104.142 C 298.436 104.795 297.822 105.295 297.029 105.642 C 296.236 105.989 295.279 106.162 294.159 106.162 C 293.039 106.162 292.059 105.969 291.219 105.582 C 290.379 105.202 289.732 104.672 289.279 103.992 C 288.819 103.305 288.589 102.535 288.589 101.682 C 288.589 100.335 289.089 99.255 290.089 98.442 C 291.089 97.629 292.662 97.222 294.809 97.222 L 298.669 97.222 L 298.669 97.002 C 298.669 95.955 298.356 95.152 297.729 94.592 C 297.109 94.032 296.182 93.752 294.949 93.752 C 294.109 93.752 293.282 93.882 292.469 94.142 C 291.656 94.409 290.969 94.775 290.409 95.242 L 289.039 92.692 C 289.826 92.092 290.769 91.635 291.869 91.322 C 292.969 91.002 294.136 90.842 295.369 90.842 Z M 294.889 103.612 C 295.769 103.612 296.549 103.412 297.229 103.012 C 297.909 102.605 298.389 102.029 298.669 101.282 L 298.669 99.552 L 295.059 99.552 C 293.046 99.552 292.039 100.215 292.039 101.542 C 292.039 102.175 292.289 102.679 292.789 103.052 C 293.296 103.425 293.996 103.612 294.889 103.612 Z" transform="matrix(1, 0, 0, 1, 104.48667907714844, 153.73960876464844)" style="fill: rgb(57, 65, 65); white-space: pre;"/>
    <path d="M 177.003 123.772 C 178.083 124.125 178.943 124.719 179.583 125.552 C 180.216 126.379 180.533 127.409 180.533 128.642 C 180.533 130.342 179.88 131.652 178.573 132.572 C 177.266 133.499 175.363 133.962 172.863 133.962 L 163.113 133.962 L 163.113 114.362 L 172.303 114.362 C 174.616 114.362 176.396 114.815 177.643 115.722 C 178.896 116.629 179.523 117.875 179.523 119.462 C 179.523 120.429 179.3 121.285 178.853 122.032 C 178.406 122.779 177.79 123.359 177.003 123.772 Z M 171.903 117.222 L 166.753 117.222 L 166.753 122.622 L 171.903 122.622 C 173.176 122.622 174.153 122.392 174.833 121.932 C 175.513 121.479 175.853 120.812 175.853 119.932 C 175.853 119.039 175.513 118.362 174.833 117.902 C 174.153 117.449 173.176 117.222 171.903 117.222 Z M 172.633 131.102 C 175.453 131.102 176.863 130.162 176.863 128.282 C 176.863 126.395 175.453 125.452 172.633 125.452 L 166.753 125.452 L 166.753 131.102 L 172.633 131.102 ZM 190.808 134.162 C 189.294 134.162 187.931 133.835 186.718 133.182 C 185.504 132.529 184.558 131.619 183.878 130.452 C 183.191 129.285 182.848 127.962 182.848 126.482 C 182.848 125.009 183.191 123.695 183.878 122.542 C 184.558 121.382 185.504 120.475 186.718 119.822 C 187.931 119.169 189.294 118.842 190.808 118.842 C 192.334 118.842 193.704 119.169 194.918 119.822 C 196.131 120.475 197.078 121.382 197.758 122.542 C 198.444 123.695 198.788 125.009 198.788 126.482 C 198.788 127.962 198.444 129.285 197.758 130.452 C 197.078 131.619 196.131 132.529 194.918 133.182 C 193.704 133.835 192.334 134.162 190.808 134.162 Z M 190.808 131.162 C 192.094 131.162 193.158 130.732 193.998 129.872 C 194.838 129.012 195.258 127.882 195.258 126.482 C 195.258 125.082 194.838 123.955 193.998 123.102 C 193.158 122.242 192.094 121.812 190.808 121.812 C 189.514 121.812 188.454 122.242 187.628 123.102 C 186.794 123.955 186.378 125.082 186.378 126.482 C 186.378 127.882 186.794 129.012 187.628 129.872 C 188.454 130.732 189.514 131.162 190.808 131.162 ZM 221.015 118.842 C 222.901 118.842 224.395 119.389 225.495 120.482 C 226.595 121.575 227.145 123.212 227.145 125.392 L 227.145 133.962 L 223.645 133.962 L 223.645 125.842 C 223.645 124.535 223.355 123.552 222.775 122.892 C 222.195 122.225 221.365 121.892 220.285 121.892 C 219.111 121.892 218.168 122.279 217.455 123.052 C 216.748 123.832 216.395 124.939 216.395 126.372 L 216.395 133.962 L 212.895 133.962 L 212.895 125.842 C 212.895 124.535 212.605 123.552 212.025 122.892 C 211.445 122.225 210.615 121.892 209.535 121.892 C 208.341 121.892 207.395 122.275 206.695 123.042 C 205.995 123.809 205.645 124.919 205.645 126.372 L 205.645 133.962 L 202.145 133.962 L 202.145 119.012 L 205.475 119.012 L 205.475 120.912 C 206.035 120.239 206.735 119.725 207.575 119.372 C 208.415 119.019 209.348 118.842 210.375 118.842 C 211.495 118.842 212.488 119.052 213.355 119.472 C 214.221 119.892 214.908 120.512 215.415 121.332 C 216.028 120.552 216.821 119.942 217.795 119.502 C 218.761 119.062 219.835 118.842 221.015 118.842 ZM 250.491 113.182 L 253.991 113.182 L 253.991 133.962 L 250.631 133.962 L 250.631 132.032 C 250.051 132.739 249.338 133.269 248.491 133.622 C 247.638 133.982 246.698 134.162 245.671 134.162 C 244.238 134.162 242.948 133.842 241.801 133.202 C 240.648 132.569 239.744 131.669 239.091 130.502 C 238.438 129.335 238.111 127.995 238.111 126.482 C 238.111 124.975 238.438 123.642 239.091 122.482 C 239.744 121.322 240.648 120.425 241.801 119.792 C 242.948 119.159 244.238 118.842 245.671 118.842 C 246.664 118.842 247.571 119.009 248.391 119.342 C 249.211 119.682 249.911 120.189 250.491 120.862 L 250.491 113.182 Z M 246.091 131.162 C 246.931 131.162 247.688 130.972 248.361 130.592 C 249.034 130.205 249.568 129.659 249.961 128.952 C 250.354 128.239 250.551 127.415 250.551 126.482 C 250.551 125.549 250.354 124.729 249.961 124.022 C 249.568 123.315 249.034 122.769 248.361 122.382 C 247.688 122.002 246.931 121.812 246.091 121.812 C 245.251 121.812 244.498 122.002 243.831 122.382 C 243.158 122.769 242.624 123.315 242.231 124.022 C 241.838 124.729 241.641 125.549 241.641 126.482 C 241.641 127.415 241.838 128.239 242.231 128.952 C 242.624 129.659 243.158 130.205 243.831 130.592 C 244.498 130.972 245.251 131.162 246.091 131.162 ZM 272.634 126.572 C 272.634 126.812 272.617 127.155 272.584 127.602 L 260.844 127.602 C 261.051 128.709 261.587 129.582 262.454 130.222 C 263.327 130.869 264.407 131.192 265.694 131.192 C 267.334 131.192 268.687 130.649 269.754 129.562 L 271.624 131.722 C 270.957 132.522 270.111 133.129 269.084 133.542 C 268.057 133.955 266.897 134.162 265.604 134.162 C 263.964 134.162 262.517 133.835 261.264 133.182 C 260.017 132.529 259.054 131.619 258.374 130.452 C 257.687 129.285 257.344 127.962 257.344 126.482 C 257.344 125.029 257.677 123.719 258.344 122.552 C 259.004 121.385 259.924 120.475 261.104 119.822 C 262.277 119.169 263.601 118.842 265.074 118.842 C 266.534 118.842 267.837 119.165 268.984 119.812 C 270.131 120.452 271.027 121.355 271.674 122.522 C 272.314 123.689 272.634 125.039 272.634 126.572 Z M 265.074 121.642 C 263.954 121.642 263.007 121.972 262.234 122.632 C 261.461 123.299 260.991 124.182 260.824 125.282 L 269.304 125.282 C 269.157 124.202 268.701 123.325 267.934 122.652 C 267.167 121.979 266.214 121.642 265.074 121.642 ZM 280.617 134.162 C 279.404 134.162 278.217 134.002 277.057 133.682 C 275.897 133.362 274.974 132.962 274.287 132.482 L 275.627 129.822 C 276.301 130.269 277.107 130.625 278.047 130.892 C 278.994 131.165 279.924 131.302 280.837 131.302 C 282.931 131.302 283.977 130.752 283.977 129.652 C 283.977 129.125 283.711 128.762 283.177 128.562 C 282.644 128.355 281.791 128.159 280.617 127.972 C 279.384 127.785 278.381 127.569 277.607 127.322 C 276.827 127.082 276.154 126.659 275.587 126.052 C 275.021 125.445 274.737 124.602 274.737 123.522 C 274.737 122.102 275.327 120.965 276.507 120.112 C 277.694 119.265 279.297 118.842 281.317 118.842 C 282.344 118.842 283.371 118.959 284.397 119.192 C 285.424 119.425 286.264 119.739 286.917 120.132 L 285.567 122.792 C 284.301 122.045 282.874 121.672 281.287 121.672 C 280.261 121.672 279.481 121.825 278.947 122.132 C 278.414 122.439 278.147 122.845 278.147 123.352 C 278.147 123.912 278.434 124.309 279.007 124.542 C 279.574 124.775 280.454 124.995 281.647 125.202 C 282.841 125.389 283.821 125.602 284.587 125.842 C 285.354 126.082 286.014 126.492 286.567 127.072 C 287.114 127.652 287.387 128.475 287.387 129.542 C 287.387 130.942 286.781 132.062 285.567 132.902 C 284.354 133.742 282.704 134.162 280.617 134.162 ZM 298.415 130.662 L 299.395 133.152 C 298.988 133.485 298.492 133.735 297.905 133.902 C 297.312 134.075 296.688 134.162 296.035 134.162 C 294.395 134.162 293.128 133.732 292.235 132.872 C 291.335 132.012 290.885 130.762 290.885 129.122 L 290.885 121.922 L 288.425 121.922 L 288.425 119.122 L 290.885 119.122 L 290.885 115.702 L 294.385 115.702 L 294.385 119.122 L 298.395 119.122 L 298.395 121.922 L 294.385 121.922 L 294.385 129.032 C 294.385 129.759 294.562 130.315 294.915 130.702 C 295.275 131.082 295.788 131.272 296.455 131.272 C 297.242 131.272 297.895 131.069 298.415 130.662 ZM 302.285 133.962 L 302.285 119.012 L 305.785 119.012 L 305.785 133.962 L 302.285 133.962 Z M 304.045 116.542 C 303.412 116.542 302.878 116.342 302.445 115.942 C 302.018 115.542 301.805 115.042 301.805 114.442 C 301.805 113.849 302.018 113.352 302.445 112.952 C 302.878 112.545 303.412 112.342 304.045 112.342 C 304.678 112.342 305.212 112.535 305.645 112.922 C 306.072 113.302 306.285 113.782 306.285 114.362 C 306.285 114.975 306.075 115.492 305.655 115.912 C 305.235 116.332 304.698 116.542 304.045 116.542 ZM 318.856 118.842 C 320.742 118.842 322.256 119.392 323.396 120.492 C 324.529 121.592 325.096 123.225 325.096 125.392 L 325.096 133.962 L 321.596 133.962 L 321.596 125.842 C 321.596 124.535 321.289 123.552 320.676 122.892 C 320.062 122.225 319.186 121.892 318.046 121.892 C 316.759 121.892 315.742 122.279 314.996 123.052 C 314.249 123.832 313.876 124.949 313.876 126.402 L 313.876 133.962 L 310.376 133.962 L 310.376 119.012 L 313.706 119.012 L 313.706 120.942 C 314.286 120.249 315.012 119.725 315.886 119.372 C 316.766 119.019 317.756 118.842 318.856 118.842 ZM 336.413 134.162 C 334.899 134.162 333.536 133.835 332.323 133.182 C 331.109 132.529 330.163 131.619 329.483 130.452 C 328.796 129.285 328.453 127.962 328.453 126.482 C 328.453 125.009 328.796 123.695 329.483 122.542 C 330.163 121.382 331.109 120.475 332.323 119.822 C 333.536 119.169 334.899 118.842 336.413 118.842 C 337.939 118.842 339.309 119.169 340.523 119.822 C 341.736 120.475 342.683 121.382 343.363 122.542 C 344.049 123.695 344.393 125.009 344.393 126.482 C 344.393 127.962 344.049 129.285 343.363 130.452 C 342.683 131.619 341.736 132.529 340.523 133.182 C 339.309 133.835 337.939 134.162 336.413 134.162 Z M 336.413 131.162 C 337.699 131.162 338.763 130.732 339.603 129.872 C 340.443 129.012 340.863 127.882 340.863 126.482 C 340.863 125.082 340.443 123.955 339.603 123.102 C 338.763 122.242 337.699 121.812 336.413 121.812 C 335.119 121.812 334.059 122.242 333.233 123.102 C 332.399 123.955 331.983 125.082 331.983 126.482 C 331.983 127.882 332.399 129.012 333.233 129.872 C 334.059 130.732 335.119 131.162 336.413 131.162 Z" transform="matrix(1, 0, 0, 1, 104.48667907714844, 153.73960876464844)" style="fill: rgb(57, 65, 65); white-space: pre;"/>
  </g>
</svg>